<svg xmlns="http://www.w3.org/2000/svg" xmlns:xlink="http://www.w3.org/1999/xlink" width="2000" zoomAndPan="magnify" viewBox="0 0 1500 1499.999933" height="2000" preserveAspectRatio="xMidYMid meet" version="1.0"><defs><clipPath id="0b838334fc"><path d="M 466 254.542969 L 1034.425781 254.542969 L 1034.425781 1245.292969 L 466 1245.292969 Z M 466 254.542969 " clip-rule="nonzero"/></clipPath></defs><g clip-path="url(#0b838334fc)"><path fill="#ff3301" d="M 1487.96875 811.496094 L 1122.863281 811.496094 L 1369.671875 1058.304688 L 1288.148438 1139.824219 L 1036.640625 888.316406 L 1036.640625 1245.457031 L 921.410156 1245.457031 L 921.410156 892.609375 L 659.480469 1154.535156 L 572.648438 1067.703125 L 828.855469 811.496094 L 466.40625 811.496094 L 466.40625 688.5 L 837.027344 688.5 L 587.5625 439.035156 L 669.085938 357.515625 L 921.410156 610.042969 L 921.410156 254.542969 L 1036.640625 254.542969 L 1036.640625 603.507812 L 1294.894531 345.257812 L 1381.726562 432.292969 L 1125.519531 688.5 L 1487.96875 688.5 Z M 1487.96875 811.496094 " fill-opacity="1" fill-rule="nonzero"/></g></svg>