<svg xmlns="http://www.w3.org/2000/svg" xmlns:xlink="http://www.w3.org/1999/xlink" zoomAndPan="magnify" preserveAspectRatio="xMidYMid meet" version="1.0" viewBox="159.01 608.65 1131.62 282.7"><defs><g/><clipPath id="e587d891cb"><path d="M 159 608.648438 L 320.871094 608.648438 L 320.871094 891.398438 L 159 891.398438 Z M 159 608.648438 " clip-rule="nonzero"/></clipPath></defs><g clip-path="url(#e587d891cb)"><path fill="#ff3301" d="M 450.453125 767.542969 L 346.289062 767.542969 L 416.703125 837.957031 L 393.445312 861.214844 L 321.691406 789.460938 L 321.691406 891.351562 L 288.816406 891.351562 L 288.816406 790.6875 L 214.089844 865.414062 L 189.316406 840.640625 L 262.410156 767.542969 L 159.007812 767.542969 L 159.007812 732.453125 L 264.742188 732.453125 L 193.570312 661.285156 L 216.828125 638.027344 L 288.816406 710.070312 L 288.816406 608.648438 L 321.691406 608.648438 L 321.691406 708.207031 L 395.371094 634.527344 L 420.140625 659.359375 L 347.046875 732.453125 L 450.453125 732.453125 Z M 450.453125 767.542969 " fill-opacity="1" fill-rule="nonzero"/></g><g fill="#e4e4e4" fill-opacity="1"><g transform="translate(348.918901, 736.499917)"><g><path d="M 80.25 0 L 75.90625 -14.546875 L 39.75 -14.546875 L 35.40625 0 L 1.5 0 L 39.15625 -103.203125 L 77.703125 -103.203125 L 115.34375 0 Z M 46.65625 -37.65625 L 69 -37.65625 L 58.203125 -74.40625 L 57.59375 -74.40625 Z M 46.65625 -37.65625 "/></g></g></g><g fill="#e4e4e4" fill-opacity="1"><g transform="translate(461.118919, 736.499917)"><g><path d="M 54.453125 -105 C 67.648438 -105 78.5 -102.320312 87 -96.96875 C 95.5 -91.625 99.847656 -83.703125 100.046875 -73.203125 L 100.046875 -71.40625 L 69 -71.40625 L 69 -72 C 69 -75 67.898438 -77.5 65.703125 -79.5 C 63.503906 -81.5 60.15625 -82.5 55.65625 -82.5 C 51.25 -82.5 47.867188 -81.847656 45.515625 -80.546875 C 43.171875 -79.242188 42 -77.644531 42 -75.75 C 42 -73.050781 43.597656 -71.050781 46.796875 -69.75 C 49.992188 -68.445312 55.144531 -67.097656 62.25 -65.703125 C 70.550781 -64.003906 77.375 -62.226562 82.71875 -60.375 C 88.070312 -58.519531 92.75 -55.492188 96.75 -51.296875 C 100.75 -47.097656 102.800781 -41.398438 102.90625 -34.203125 C 102.90625 -22.003906 98.78125 -12.953125 90.53125 -7.046875 C 82.28125 -1.148438 71.253906 1.796875 57.453125 1.796875 C 41.347656 1.796875 28.820312 -0.898438 19.875 -6.296875 C 10.925781 -11.703125 6.453125 -21.253906 6.453125 -34.953125 L 37.796875 -34.953125 C 37.796875 -29.753906 39.144531 -26.28125 41.84375 -24.53125 C 44.550781 -22.78125 48.753906 -21.90625 54.453125 -21.90625 C 58.648438 -21.90625 62.125 -22.351562 64.875 -23.25 C 67.625 -24.144531 69 -25.992188 69 -28.796875 C 69 -31.296875 67.472656 -33.171875 64.421875 -34.421875 C 61.367188 -35.671875 56.394531 -37 49.5 -38.40625 C 41.101562 -40.195312 34.15625 -42.066406 28.65625 -44.015625 C 23.15625 -45.972656 18.351562 -49.203125 14.25 -53.703125 C 10.144531 -58.203125 8.09375 -64.300781 8.09375 -72 C 8.09375 -83.300781 12.46875 -91.625 21.21875 -96.96875 C 29.96875 -102.320312 41.046875 -105 54.453125 -105 Z M 54.453125 -105 "/></g></g></g><g fill="#e4e4e4" fill-opacity="1"><g transform="translate(564.918928, 736.499917)"><g><path d="M 70.5 -76.796875 L 70.5 0 L 37.34375 0 L 37.34375 -76.796875 L 3.453125 -76.796875 L 3.453125 -103.203125 L 104.25 -103.203125 L 104.25 -76.796875 Z M 70.5 -76.796875 "/></g></g></g><g fill="#e4e4e4" fill-opacity="1"><g transform="translate(668.71896, 736.499917)"><g><path d="M 11.09375 -103.203125 L 100.34375 -103.203125 L 100.34375 -78.453125 L 44.25 -78.453125 L 44.25 -64.203125 L 92.25 -64.203125 L 92.25 -40.5 L 44.25 -40.5 L 44.25 -24.75 L 101.40625 -24.75 L 101.40625 0 L 11.09375 0 Z M 11.09375 -103.203125 "/></g></g></g><g fill="#e4e4e4" fill-opacity="1"><g transform="translate(772.518993, 736.499917)"><g><path d="M 109.046875 -71.546875 C 109.046875 -65.242188 107.34375 -59.539062 103.9375 -54.4375 C 100.539062 -49.34375 95.59375 -45.597656 89.09375 -43.203125 L 112.046875 0 L 74.84375 0 L 56.546875 -37.65625 L 44.25 -37.65625 L 44.25 0 L 11.09375 0 L 11.09375 -103.203125 L 74.25 -103.203125 C 81.644531 -103.203125 87.96875 -101.773438 93.21875 -98.921875 C 98.46875 -96.078125 102.414062 -92.226562 105.0625 -87.375 C 107.71875 -82.519531 109.046875 -77.242188 109.046875 -71.546875 Z M 75.296875 -70.203125 C 75.296875 -72.898438 74.394531 -75.148438 72.59375 -76.953125 C 70.800781 -78.753906 68.601562 -79.65625 66 -79.65625 L 44.25 -79.65625 L 44.25 -60.59375 L 66 -60.59375 C 68.601562 -60.59375 70.800781 -61.519531 72.59375 -63.375 C 74.394531 -65.226562 75.296875 -67.503906 75.296875 -70.203125 Z M 75.296875 -70.203125 "/></g></g></g><g fill="#e4e4e4" fill-opacity="1"><g transform="translate(884.719011, 736.499917)"><g><path d="M 12.59375 0 L 12.59375 -103.203125 L 45.75 -103.203125 L 45.75 0 Z M 12.59375 0 "/></g></g></g><g fill="#e4e4e4" fill-opacity="1"><g transform="translate(938.568997, 736.499917)"><g><path d="M 54.453125 -105 C 67.648438 -105 78.5 -102.320312 87 -96.96875 C 95.5 -91.625 99.847656 -83.703125 100.046875 -73.203125 L 100.046875 -71.40625 L 69 -71.40625 L 69 -72 C 69 -75 67.898438 -77.5 65.703125 -79.5 C 63.503906 -81.5 60.15625 -82.5 55.65625 -82.5 C 51.25 -82.5 47.867188 -81.847656 45.515625 -80.546875 C 43.171875 -79.242188 42 -77.644531 42 -75.75 C 42 -73.050781 43.597656 -71.050781 46.796875 -69.75 C 49.992188 -68.445312 55.144531 -67.097656 62.25 -65.703125 C 70.550781 -64.003906 77.375 -62.226562 82.71875 -60.375 C 88.070312 -58.519531 92.75 -55.492188 96.75 -51.296875 C 100.75 -47.097656 102.800781 -41.398438 102.90625 -34.203125 C 102.90625 -22.003906 98.78125 -12.953125 90.53125 -7.046875 C 82.28125 -1.148438 71.253906 1.796875 57.453125 1.796875 C 41.347656 1.796875 28.820312 -0.898438 19.875 -6.296875 C 10.925781 -11.703125 6.453125 -21.253906 6.453125 -34.953125 L 37.796875 -34.953125 C 37.796875 -29.753906 39.144531 -26.28125 41.84375 -24.53125 C 44.550781 -22.78125 48.753906 -21.90625 54.453125 -21.90625 C 58.648438 -21.90625 62.125 -22.351562 64.875 -23.25 C 67.625 -24.144531 69 -25.992188 69 -28.796875 C 69 -31.296875 67.472656 -33.171875 64.421875 -34.421875 C 61.367188 -35.671875 56.394531 -37 49.5 -38.40625 C 41.101562 -40.195312 34.15625 -42.066406 28.65625 -44.015625 C 23.15625 -45.972656 18.351562 -49.203125 14.25 -53.703125 C 10.144531 -58.203125 8.09375 -64.300781 8.09375 -72 C 8.09375 -83.300781 12.46875 -91.625 21.21875 -96.96875 C 29.96875 -102.320312 41.046875 -105 54.453125 -105 Z M 54.453125 -105 "/></g></g></g><g fill="#e4e4e4" fill-opacity="1"><g transform="translate(1042.369006, 736.499917)"><g><path d="M 81 -103.203125 L 122.09375 -103.203125 L 85.046875 -60.75 L 122.84375 0 L 83.703125 0 L 62.25 -37.796875 L 44.25 -23.09375 L 44.25 0 L 11.09375 0 L 11.09375 -103.203125 L 44.25 -103.203125 L 44.25 -59.09375 Z M 81 -103.203125 "/></g></g></g><g fill="#e4e4e4" fill-opacity="1"><g transform="translate(348.918901, 863.999906)"><g><path d="M 54.453125 -105 C 67.648438 -105 78.5 -102.320312 87 -96.96875 C 95.5 -91.625 99.847656 -83.703125 100.046875 -73.203125 L 100.046875 -71.40625 L 69 -71.40625 L 69 -72 C 69 -75 67.898438 -77.5 65.703125 -79.5 C 63.503906 -81.5 60.15625 -82.5 55.65625 -82.5 C 51.25 -82.5 47.867188 -81.847656 45.515625 -80.546875 C 43.171875 -79.242188 42 -77.644531 42 -75.75 C 42 -73.050781 43.597656 -71.050781 46.796875 -69.75 C 49.992188 -68.445312 55.144531 -67.097656 62.25 -65.703125 C 70.550781 -64.003906 77.375 -62.226562 82.71875 -60.375 C 88.070312 -58.519531 92.75 -55.492188 96.75 -51.296875 C 100.75 -47.097656 102.800781 -41.398438 102.90625 -34.203125 C 102.90625 -22.003906 98.78125 -12.953125 90.53125 -7.046875 C 82.28125 -1.148438 71.253906 1.796875 57.453125 1.796875 C 41.347656 1.796875 28.820312 -0.898438 19.875 -6.296875 C 10.925781 -11.703125 6.453125 -21.253906 6.453125 -34.953125 L 37.796875 -34.953125 C 37.796875 -29.753906 39.144531 -26.28125 41.84375 -24.53125 C 44.550781 -22.78125 48.753906 -21.90625 54.453125 -21.90625 C 58.648438 -21.90625 62.125 -22.351562 64.875 -23.25 C 67.625 -24.144531 69 -25.992188 69 -28.796875 C 69 -31.296875 67.472656 -33.171875 64.421875 -34.421875 C 61.367188 -35.671875 56.394531 -37 49.5 -38.40625 C 41.101562 -40.195312 34.15625 -42.066406 28.65625 -44.015625 C 23.15625 -45.972656 18.351562 -49.203125 14.25 -53.703125 C 10.144531 -58.203125 8.09375 -64.300781 8.09375 -72 C 8.09375 -83.300781 12.46875 -91.625 21.21875 -96.96875 C 29.96875 -102.320312 41.046875 -105 54.453125 -105 Z M 54.453125 -105 "/></g></g></g><g fill="#e4e4e4" fill-opacity="1"><g transform="translate(452.718922, 863.999906)"><g><path d="M 62.40625 -105 C 80.195312 -105 93.941406 -100.445312 103.640625 -91.34375 C 113.347656 -82.25 118.203125 -69 118.203125 -51.59375 C 118.203125 -34.195312 113.347656 -20.945312 103.640625 -11.84375 C 93.941406 -2.75 80.195312 1.796875 62.40625 1.796875 C 44.601562 1.796875 30.875 -2.722656 21.21875 -11.765625 C 11.570312 -20.816406 6.75 -34.09375 6.75 -51.59375 C 6.75 -69.09375 11.570312 -82.367188 21.21875 -91.421875 C 30.875 -100.472656 44.601562 -105 62.40625 -105 Z M 62.40625 -80.25 C 55.300781 -80.25 49.898438 -78.097656 46.203125 -73.796875 C 42.503906 -69.492188 40.65625 -63.695312 40.65625 -56.40625 L 40.65625 -46.796875 C 40.65625 -39.492188 42.503906 -33.691406 46.203125 -29.390625 C 49.898438 -25.097656 55.300781 -22.953125 62.40625 -22.953125 C 69.5 -22.953125 74.921875 -25.097656 78.671875 -29.390625 C 82.421875 -33.691406 84.296875 -39.492188 84.296875 -46.796875 L 84.296875 -56.40625 C 84.296875 -63.695312 82.421875 -69.492188 78.671875 -73.796875 C 74.921875 -78.097656 69.5 -80.25 62.40625 -80.25 Z M 62.40625 -80.25 "/></g></g></g><g fill="#e4e4e4" fill-opacity="1"><g transform="translate(573.168927, 863.999906)"><g><path d="M 11.09375 -103.203125 L 44.25 -103.203125 L 44.25 -26.40625 L 97.203125 -26.40625 L 97.203125 0 L 11.09375 0 Z M 11.09375 -103.203125 "/></g></g></g><g fill="#e4e4e4" fill-opacity="1"><g transform="translate(668.718937, 863.999906)"><g><path d="M 113.84375 -41.546875 C 113.84375 -27.453125 109.394531 -16.703125 100.5 -9.296875 C 91.601562 -1.898438 78.953125 1.796875 62.546875 1.796875 C 46.148438 1.796875 33.472656 -1.898438 24.515625 -9.296875 C 15.566406 -16.703125 11.09375 -27.453125 11.09375 -41.546875 L 11.09375 -103.203125 L 44.25 -103.203125 L 44.25 -42 C 44.25 -36.195312 45.796875 -31.570312 48.890625 -28.125 C 51.992188 -24.675781 56.5 -22.953125 62.40625 -22.953125 C 68.300781 -22.953125 72.820312 -24.703125 75.96875 -28.203125 C 79.125 -31.703125 80.703125 -36.300781 80.703125 -42 L 80.703125 -103.203125 L 113.84375 -103.203125 Z M 113.84375 -41.546875 "/></g></g></g><g fill="#e4e4e4" fill-opacity="1"><g transform="translate(789.168954, 863.999906)"><g><path d="M 70.5 -76.796875 L 70.5 0 L 37.34375 0 L 37.34375 -76.796875 L 3.453125 -76.796875 L 3.453125 -103.203125 L 104.25 -103.203125 L 104.25 -76.796875 Z M 70.5 -76.796875 "/></g></g></g><g fill="#e4e4e4" fill-opacity="1"><g transform="translate(892.968964, 863.999906)"><g><path d="M 12.59375 0 L 12.59375 -103.203125 L 45.75 -103.203125 L 45.75 0 Z M 12.59375 0 "/></g></g></g><g fill="#e4e4e4" fill-opacity="1"><g transform="translate(946.818996, 863.999906)"><g><path d="M 62.40625 -105 C 80.195312 -105 93.941406 -100.445312 103.640625 -91.34375 C 113.347656 -82.25 118.203125 -69 118.203125 -51.59375 C 118.203125 -34.195312 113.347656 -20.945312 103.640625 -11.84375 C 93.941406 -2.75 80.195312 1.796875 62.40625 1.796875 C 44.601562 1.796875 30.875 -2.722656 21.21875 -11.765625 C 11.570312 -20.816406 6.75 -34.09375 6.75 -51.59375 C 6.75 -69.09375 11.570312 -82.367188 21.21875 -91.421875 C 30.875 -100.472656 44.601562 -105 62.40625 -105 Z M 62.40625 -80.25 C 55.300781 -80.25 49.898438 -78.097656 46.203125 -73.796875 C 42.503906 -69.492188 40.65625 -63.695312 40.65625 -56.40625 L 40.65625 -46.796875 C 40.65625 -39.492188 42.503906 -33.691406 46.203125 -29.390625 C 49.898438 -25.097656 55.300781 -22.953125 62.40625 -22.953125 C 69.5 -22.953125 74.921875 -25.097656 78.671875 -29.390625 C 82.421875 -33.691406 84.296875 -39.492188 84.296875 -46.796875 L 84.296875 -56.40625 C 84.296875 -63.695312 82.421875 -69.492188 78.671875 -73.796875 C 74.921875 -78.097656 69.5 -80.25 62.40625 -80.25 Z M 62.40625 -80.25 "/></g></g></g><g fill="#e4e4e4" fill-opacity="1"><g transform="translate(1067.269013, 863.999906)"><g><path d="M 84.90625 0 L 41.546875 -50.09375 L 41.546875 0 L 11.09375 0 L 11.09375 -103.203125 L 40.046875 -103.203125 L 83.40625 -52.34375 L 83.40625 -103.203125 L 113.84375 -103.203125 L 113.84375 0 Z M 84.90625 0 "/></g></g></g><g fill="#e4e4e4" fill-opacity="1"><g transform="translate(1187.71903, 863.999906)"><g><path d="M 54.453125 -105 C 67.648438 -105 78.5 -102.320312 87 -96.96875 C 95.5 -91.625 99.847656 -83.703125 100.046875 -73.203125 L 100.046875 -71.40625 L 69 -71.40625 L 69 -72 C 69 -75 67.898438 -77.5 65.703125 -79.5 C 63.503906 -81.5 60.15625 -82.5 55.65625 -82.5 C 51.25 -82.5 47.867188 -81.847656 45.515625 -80.546875 C 43.171875 -79.242188 42 -77.644531 42 -75.75 C 42 -73.050781 43.597656 -71.050781 46.796875 -69.75 C 49.992188 -68.445312 55.144531 -67.097656 62.25 -65.703125 C 70.550781 -64.003906 77.375 -62.226562 82.71875 -60.375 C 88.070312 -58.519531 92.75 -55.492188 96.75 -51.296875 C 100.75 -47.097656 102.800781 -41.398438 102.90625 -34.203125 C 102.90625 -22.003906 98.78125 -12.953125 90.53125 -7.046875 C 82.28125 -1.148438 71.253906 1.796875 57.453125 1.796875 C 41.347656 1.796875 28.820312 -0.898438 19.875 -6.296875 C 10.925781 -11.703125 6.453125 -21.253906 6.453125 -34.953125 L 37.796875 -34.953125 C 37.796875 -29.753906 39.144531 -26.28125 41.84375 -24.53125 C 44.550781 -22.78125 48.753906 -21.90625 54.453125 -21.90625 C 58.648438 -21.90625 62.125 -22.351562 64.875 -23.25 C 67.625 -24.144531 69 -25.992188 69 -28.796875 C 69 -31.296875 67.472656 -33.171875 64.421875 -34.421875 C 61.367188 -35.671875 56.394531 -37 49.5 -38.40625 C 41.101562 -40.195312 34.15625 -42.066406 28.65625 -44.015625 C 23.15625 -45.972656 18.351562 -49.203125 14.25 -53.703125 C 10.144531 -58.203125 8.09375 -64.300781 8.09375 -72 C 8.09375 -83.300781 12.46875 -91.625 21.21875 -96.96875 C 29.96875 -102.320312 41.046875 -105 54.453125 -105 Z M 54.453125 -105 "/></g></g></g></svg>